<svg width="12" height="12" viewBox="0 0 12 12" fill="none" xmlns="http://www.w3.org/2000/svg">
<path d="M8.28173 4.79965H6.15569H3.90605C3.46106 4.79965 3.1644 5.04426 3.11496 5.38671C3.09024 5.50902 3.09024 5.63132 3.09024 5.63132H8.89977C8.89977 5.63132 8.89977 5.55794 8.92449 5.48456C8.99865 5.11764 8.85032 4.79965 8.28173 4.79965Z" fill="#DD0000"/>
<path d="M8.89989 5.94925C8.89989 5.94925 8.87517 6.07155 8.87517 6.19386C8.85045 6.43847 8.65267 6.63416 8.30657 6.63416H7.07051L6.89746 7.7349H5.9086L6.13109 5.94925H8.89989Z" fill="#DD0000"/>
<path d="M0.370767 4.79965H3.01596L2.91707 5.63132H0.271881L0.370767 4.79965Z" fill="#DD0000"/>
<path d="M0.222492 5.94925L0 7.7349H2.64519L2.74407 6.95215H1.08774L1.13718 6.60969H2.79352L2.86768 5.94925H0.222492Z" fill="#DD0000"/>
<path d="M9.22105 4.79965H11.3718C11.7179 4.79965 12.064 4.94642 11.9898 5.48456C11.9651 5.5824 11.9651 5.60686 11.9651 5.60686H9.12216L9.22105 4.79965Z" fill="#DD0000"/>
<path d="M8.87491 7.73476H9.86376L10.0863 5.94911L9.0974 5.92465L8.87491 7.73476Z" fill="#DD0000"/>
<path d="M10.7291 7.73476H11.718L11.9652 5.94911L10.9763 5.92465L10.7291 7.73476Z" fill="#DD0000"/>
<path d="M5.24093 5.94925C5.06788 5.94925 3.41155 5.94925 3.06545 5.94925C2.99129 6.41401 3.2385 6.63416 3.55988 6.63416C3.73293 6.63416 4.89483 6.63416 4.89483 6.63416L4.84539 6.97661H2.91712L2.84296 7.7349C2.84296 7.7349 4.94427 7.7349 5.01844 7.7349C5.0926 7.7349 5.58703 7.71044 5.73536 7.31906C5.7848 7.19676 5.83424 6.732 5.85897 6.63416C5.93313 6.07155 5.53759 5.94925 5.24093 5.94925Z" fill="#DD0000"/>
</svg>
